<mxfile host="app.diagrams.net" modified="2024-04-01T10:16:21.557Z" agent="Mozilla/5.0 (Macintosh; Intel Mac OS X 10_15_7) AppleWebKit/537.36 (KHTML, like Gecko) Chrome/123.0.0.0 Safari/537.36" version="24.2.0" etag="Bdub0wA1fg0AZW1s-Nh0" type="github">
  <diagram name="Page-1" id="qX9vpFfgcV7yir_mWmqy">
    <mxGraphModel>
      <root>
        <mxCell id="0" />
        <mxCell id="1" parent="0" />
      </root>
    </mxGraphModel>
  </diagram>
</mxfile>
